<?xml version="1.0" standalone="no"?>
<!DOCTYPE svg PUBLIC "-//W3C//DTD SVG 20010904//EN"
 "http://www.w3.org/TR/2001/REC-SVG-20010904/DTD/svg10.dtd">
<svg version="1.0" xmlns="http://www.w3.org/2000/svg"
 width="1024.000000pt" height="1024.000000pt" viewBox="0 0 1024.000000 1024.000000"
 preserveAspectRatio="xMidYMid meet">
<metadata>
Created by potrace 1.14, written by Peter Selinger 2001-2017
</metadata>
<g transform="translate(0.000000,1024.000000) scale(0.100000,-0.100000)"
fill="#000000" stroke="none">
<path d="M125 10221 c-49 -23 -89 -64 -109 -113 -14 -34 -16 -534 -16 -4975 0
-3552 3 -4949 11 -4978 16 -56 53 -100 107 -126 l46 -23 4216 0 4216 0 49 24
c91 46 134 144 106 247 -15 54 -80 119 -135 134 -30 8 -1175 11 -4118 11
-3040 0 -4078 3 -4080 12 -3 9 -2 9333 1 9376 1 13 528 15 4688 13 2579 0
4693 -2 4699 -2 8 -1 11 -1275 12 -4823 0 -3665 3 -4830 12 -4853 46 -117 179
-172 287 -117 43 23 88 70 106 111 16 40 17 9891 1 9949 -17 59 -55 105 -106
130 l-43 21 -4955 0 c-4801 1 -4956 0 -4995 -18z"/>
<path d="M2278 8075 c-2 -1 -37 -5 -78 -8 -132 -11 -277 -67 -392 -154 -381
-289 -431 -830 -109 -1179 265 -286 711 -340 1028 -123 398 272 472 813 163
1182 -118 141 -316 249 -498 272 -62 8 -111 12 -114 10z m120 -436 c116 -38
214 -137 251 -251 27 -82 17 -206 -22 -280 -101 -192 -322 -267 -512 -173
-279 137 -279 540 0 680 85 42 198 52 283 24z"/>
<path d="M3659 7477 c-65 -17 -111 -56 -139 -120 -49 -106 9 -242 119 -278 28
-10 603 -13 2506 -12 l2470 0 42 21 c161 83 155 307 -12 378 -37 16 -201 17
-2497 18 -1352 1 -2472 -3 -2489 -7z"/>
<path d="M2210 5907 c-53 -25 -89 -59 -108 -100 -51 -106 -13 -225 88 -277 21
-10 66 -22 101 -25 122 -12 210 -53 277 -130 140 -159 126 -392 -32 -539 -78
-73 -221 -109 -331 -85 -173 40 -287 175 -301 359 -12 145 -102 230 -231 217
-104 -11 -184 -99 -186 -204 -2 -213 88 -422 248 -577 202 -194 510 -270 770
-189 53 16 167 64 175 73 3 3 17 11 31 18 64 33 179 146 237 232 149 224 175
519 66 765 -118 268 -394 459 -678 471 -67 2 -109 0 -126 -9z"/>
<path d="M3615 5305 c-55 -27 -100 -85 -111 -142 -17 -88 30 -183 108 -225
l43 -22 2485 0 c2275 0 2488 1 2515 16 109 59 151 190 91 291 -15 26 -46 60
-68 75 l-42 27 -2486 3 -2486 2 -49 -25z"/>
<path d="M2114 3750 c-310 -69 -551 -318 -614 -633 -14 -72 -15 -215 0 -287
48 -251 210 -465 437 -579 122 -61 330 -92 468 -70 197 32 394 150 516 309
154 200 203 489 123 728 -86 257 -312 466 -571 528 -99 24 -260 26 -359 4z
m300 -421 c244 -90 328 -393 166 -598 -41 -52 -112 -100 -181 -125 -70 -24
-201 -16 -269 17 -101 48 -166 119 -205 222 -25 65 -25 183 0 252 37 104 141
205 245 238 61 19 182 16 244 -6z"/>
<path d="M3625 3161 c-137 -63 -167 -236 -60 -337 24 -22 59 -45 77 -51 23 -6
847 -9 2509 -9 l2476 1 48 30 c138 86 130 284 -14 358 l-55 27 -2470 0 c-2382
-1 -2472 -1 -2511 -19z"/>
</g>
</svg>
